<?xml version="1.0" encoding="UTF-8"?>
<svg id="Layer_1" data-name="Layer 1" xmlns="http://www.w3.org/2000/svg" viewBox="0 0 100 101.33">
  <defs>
    <style>
      .cls-1, .cls-2 {
        fill: #fff;
      }

      .cls-3 {
        fill: #17a3dc;
      }

      .cls-3, .cls-2, .cls-4, .cls-5, .cls-6, .cls-7 {
        fill-rule: evenodd;
      }

      .cls-4 {
        fill: #fdbc21;
      }

      .cls-5 {
        fill: #020101;
      }

      .cls-6 {
        fill: #eb1e28;
      }

      .cls-7 {
        fill: #98c840;
      }
    </style>
  </defs>
  <path class="cls-5" d="m95.33,29.17v-.16c-.08-1.72-.85-3.45-2.04-4.85-1.16-1.37-2.69-2.39-4.29-2.71-3.07-.61-6.14-1.23-9.21-1.85-2.63-.53-5.27-1.06-7.92-1.59l-5.02-1-8.82-1.76,1.63,36.08,36.68,1.1-.02-.34-.49-11.38c-.17-3.86-.34-7.71-.5-11.56h0Z"/>
  <path class="cls-5" d="m60.57,53.64l1.61,35.73,5.51-.68,8.58-1.06,9.78-1.21,7.05-.87c1.44-.18,2.76-.99,3.71-2.16.99-1.21,1.57-2.78,1.5-4.41h0l-.03-.47-.03-.51v-.26s-.08-1.77-.08-1.77h0l-.06-1.34c-.29-6.54-.58-13.07-.87-19.88l-36.67-1.1h0Z"/>
  <path class="cls-5" d="m56.82,15.44l-1.92-.38-5.84-1.17c-3.98-.8-7.98-1.6-11.98-2.39l-9.05-1.8c-8.69-1.73-14.4-3.05-13.99,5.67l.34,7.5.46,10.08.41,8.78.4,8.77v.02s42.81,1.29,42.81,1.29l-1.64-36.37h0Z"/>
  <path class="cls-5" d="m17.94,1.28c19.4,5.3,50.76,13.48,70.04,17.47-15.61-2.54-48.2-9.75-63.61-13.28-8.44-1.93-14.19-1.91-13.66,9.78.27,5.92.53,10.96.81,16.89.27,5.93.54,11.88.81,17.79.45,9.86,1.05,21.36,1.61,30.57,1.17,19.13,5.75,16.37,19.55,14.79,16.67-1.91,46.76-6.41,58.02-7.33-21.49,2.77-51.23,10.41-72.69,13.14-13.04,1.66-14.48-6.02-14.86-14.41C2.67,58.07,1.33,43.1.04,14.47-.67-1.16,8.19-1.38,17.94,1.28h0Z"/>
  <path class="cls-5" d="m15.8,52.13l.3,6.52.43,9.36.3,6.46c.17,3.69.34,7.38.51,11.06h0c.02.41.05.79.1,1.14.3,2.34,1.17,4.31,2.38,5.65.97,1.08,2.16,1.7,3.37,1.65.1,0,.19-.01.26-.02l5.77-.71,12.08-1.5c7.53-.91,10.45-1.28,13.23-1.62l4.28-.53,1.42-.18-1.63-35.98-42.81-1.29h0Z"/>
  <path class="cls-7" d="m17.76,52.14l.3,6.52.43,9.36.3,6.46c.17,3.69.34,7.38.51,11.06h0c.02.41.05.79.1,1.14.3,2.34,1.17,4.31,2.38,5.65.97,1.08,2.16,1.7,3.37,1.65.1,0,.19-.01.26-.02l5.77-.71,12.08-1.5c7.53-.91,10.45-1.28,13.23-1.62l4.28-.53,1.42-.18-1.63-35.98-42.81-1.29h0Z"/>
  <path class="cls-6" d="m58.86,15.42l-1.92-.38-5.84-1.17c-3.98-.8-7.98-1.6-11.98-2.39l-9.05-1.8c-8.69-1.73-14.4-3.05-13.99,5.67l.34,7.5.46,10.08.41,8.78.4,8.77v.02s42.81,1.29,42.81,1.29l-1.64-36.37h0Z"/>
  <path class="cls-3" d="m62.26,53.48l1.61,35.73,5.51-.68,8.58-1.06,9.78-1.21,7.05-.87c1.44-.18,2.76-.99,3.71-2.16.99-1.21,1.57-2.78,1.5-4.41h0l-.03-.47-.03-.51v-.26s-.08-1.77-.08-1.77h0l-.06-1.34c-.29-6.54-.58-13.07-.87-19.88l-36.67-1.1h0Z"/>
  <path class="cls-4" d="m97.86,29.67v-.16c-.08-1.72-.85-3.45-2.04-4.85-1.16-1.37-2.69-2.39-4.29-2.71-3.07-.61-6.14-1.23-9.21-1.85-2.63-.53-5.27-1.06-7.92-1.59l-5.02-1-8.82-1.76,1.63,36.08,36.68,1.1-.02-.34-.49-11.38c-.17-3.86-.34-7.71-.5-11.56h0Z"/>
  <path class="cls-1" d="m76.22,70.69c-1.28-1.16-2.57-2.32-3.88-3.5-1.32-1.19-2.66-2.4-4.01-3.62,1.97-1.99,3.92-3.95,5.83-5.88,1.29,1.23,2.56,2.44,3.82,3.64,1.25,1.19,2.48,2.36,3.7,3.51,1.1-1.18,2.2-2.35,3.27-3.51,1.07-1.15,2.13-2.29,3.19-3.41,1.79,1.83,3.56,3.62,5.3,5.38-1,1.12-2.01,2.26-3.03,3.4-1.03,1.15-2.06,2.32-3.11,3.5,1.14,1.09,2.27,2.16,3.39,3.23,1.11,1.05,2.2,2.09,3.29,3.12-1.6,1.9-3.22,3.82-4.86,5.77-1.13-1.02-2.28-2.05-3.44-3.1-1.17-1.05-2.35-2.12-3.55-3.21-1.11,1.25-2.23,2.51-3.36,3.78-1.14,1.28-2.3,2.58-3.46,3.89-2.06-1.73-4.15-3.48-6.29-5.28,1.23-1.32,2.45-2.63,3.65-3.92,1.19-1.28,2.38-2.55,3.55-3.8h0Z"/>
  <path class="cls-1" d="m35.61,26.45c-.07-1.98-.14-3.97-.21-5.95-.07-1.99-.14-3.98-.21-5.97,1.71.35,3.39.7,5.05,1.04,1.61.33,3.21.66,4.78.99.06,1.89.13,3.78.19,5.66.06,1.88.13,3.76.19,5.64,1.91.27,3.78.54,5.61.81,1.79.26,3.55.51,5.28.75.04,1.41.09,2.8.13,4.2.04,1.4.09,2.8.13,4.19-1.72-.16-3.47-.32-5.26-.49-1.83-.17-3.69-.34-5.59-.52.06,1.87.13,3.74.19,5.61.06,1.87.13,3.73.19,5.59-1.55-.05-3.12-.09-4.72-.14-1.63-.05-3.29-.1-4.99-.15-.07-1.96-.14-3.93-.21-5.9-.07-1.97-.14-3.94-.21-5.92-2.17-.2-4.39-.41-6.66-.62-2.33-.22-4.71-.44-7.14-.67-.07-1.69-.13-3.37-.19-5.06-.06-1.69-.13-3.38-.19-5.08,2.45.35,4.84.69,7.16,1.03,2.28.33,4.5.65,6.68.96h0Z"/>
  <path class="cls-1" d="m52.77,76.06c-3.48.27-7.13.54-10.95.84-4.02.31-8.24.63-12.68.97-.08-2.04-.17-4.07-.25-6.09-.08-2-.17-4-.25-5.98,4.37-.03,8.54-.05,12.5-.08,3.77-.02,7.38-.05,10.82-.07.13,1.71.27,3.44.4,5.17.13,1.74.27,3.49.4,5.25h0Z"/>
  <path class="cls-2" d="m90.42,41.64c-3.38-.32-6.87-.66-10.48-1-3.73-.36-7.6-.73-11.6-1.11-.04-1.3-.08-2.6-.12-3.9-.04-1.3-.08-2.6-.13-3.89,4,.52,7.87,1.02,11.6,1.5,3.61.47,7.1.92,10.48,1.36.04,1.17.08,2.35.12,3.52.04,1.17.08,2.35.12,3.52h0Zm-10.44.2c1.96.18,3.55,1.86,3.62,3.76.06,1.9-1.42,3.35-3.38,3.24-1.96-.11-3.67-1.8-3.73-3.76-.07-1.96,1.53-3.41,3.5-3.23h0Zm-.56-16.75c1.96.33,3.55,2.12,3.62,4.01.06,1.89-1.42,3.22-3.38,2.95-1.96-.26-3.67-2.08-3.73-4.03-.06-1.95,1.53-3.26,3.5-2.94h0Z"/>
</svg>