<?xml version="1.0" standalone="no"?>
<!DOCTYPE svg PUBLIC "-//W3C//DTD SVG 20010904//EN"
 "http://www.w3.org/TR/2001/REC-SVG-20010904/DTD/svg10.dtd">
<svg version="1.0" xmlns="http://www.w3.org/2000/svg"
 width="808.000000pt" height="808.000000pt" viewBox="0 0 808.000000 808.000000"
 preserveAspectRatio="xMidYMid meet">
<metadata>
Created by potrace 1.14, written by Peter Selinger 2001-2017
</metadata>
<g transform="translate(0.000000,808.000000) scale(0.100000,-0.100000)"
fill="#000000" stroke="none">
<path d="M617 8060 c-306 -77 -479 -297 -542 -690 -18 -111 -20 -478 -5 -745
5 -93 14 -267 20 -385 10 -221 29 -563 55 -1030 8 -146 17 -305 20 -355 3 -49
12 -200 20 -335 8 -135 21 -360 30 -500 8 -140 17 -293 20 -340 3 -47 12 -195
20 -330 13 -215 35 -600 50 -890 3 -52 12 -221 20 -375 8 -154 24 -471 36
-705 27 -558 50 -727 126 -910 108 -258 279 -396 565 -454 122 -25 373 -21
598 9 579 77 1169 181 2210 390 2159 434 2587 514 3305 620 132 20 194 37 105
29 -240 -20 -971 -107 -1425 -169 -60 -8 -297 -40 -525 -70 -789 -105 -935
-125 -1045 -140 -251 -34 -336 -46 -445 -60 -372 -48 -450 -58 -595 -76 -88
-11 -234 -29 -325 -40 -91 -11 -271 -33 -400 -50 -498 -63 -651 -72 -797 -44
-111 21 -189 63 -260 138 -124 133 -195 350 -243 742 -30 250 -95 1375 -160
2780 -25 533 -41 900 -60 1310 -11 242 -27 571 -35 730 -49 976 -46 1099 25
1288 35 92 97 176 165 222 88 59 149 76 295 82 175 8 312 -12 685 -97 230 -53
467 -106 575 -130 47 -10 207 -46 355 -79 264 -59 577 -128 803 -177 61 -13
163 -35 225 -49 222 -48 538 -115 872 -185 187 -39 403 -84 480 -100 288 -60
811 -162 1150 -225 384 -70 445 -80 445 -72 0 5 -18 10 -395 92 -216 48 -848
193 -1060 245 -66 16 -196 47 -290 70 -235 57 -1043 258 -1255 313 -96 25
-265 69 -375 97 -196 50 -237 61 -600 156 -362 94 -440 115 -1148 305 -717
193 -755 201 -1012 205 -173 3 -210 1 -278 -16z"/>
<path d="M1440 7391 c-83 -26 -113 -45 -162 -100 -55 -61 -84 -135 -98 -249
-11 -89 -8 -201 25 -897 8 -170 19 -413 25 -540 6 -126 17 -369 25 -540 8
-170 19 -425 25 -565 6 -140 14 -300 18 -355 l7 -100 95 -2 c52 -1 246 -7 430
-13 184 -6 556 -17 825 -25 270 -8 654 -19 855 -25 1413 -42 1373 -41 1378
-17 5 24 89 23 122 0 22 -15 89 -19 595 -34 1009 -31 1612 -49 1973 -60 194
-6 355 -9 358 -6 3 3 -2 162 -10 354 -9 191 -25 566 -36 833 -28 668 -34 752
-60 830 -47 141 -156 283 -278 363 -105 69 -155 84 -507 153 -71 14 -159 31
-195 39 -36 8 -76 17 -90 19 -31 5 -620 124 -675 136 -22 4 -78 16 -125 25
-47 9 -125 25 -175 35 -49 10 -126 25 -170 34 -44 8 -125 25 -180 36 -183 37
-409 83 -450 90 -22 4 -110 21 -195 38 -261 53 -1883 376 -2260 451 -523 103
-581 111 -827 110 -171 0 -218 -3 -263 -18z m1726 -537 c148 -30 315 -65 371
-76 l102 -21 5 -71 c3 -39 11 -241 17 -449 8 -254 16 -380 23 -383 6 -2 200
-31 430 -64 230 -33 421 -62 423 -64 6 -6 27 -646 21 -651 -2 -2 -46 0 -98 5
-608 59 -752 71 -757 66 -5 -5 14 -734 22 -830 l5 -59 -197 7 c-109 3 -282 9
-384 13 l-186 6 -12 376 c-7 207 -15 419 -19 471 l-7 95 -40 3 c-22 1 -134 11
-250 22 -210 20 -427 40 -670 63 l-130 12 -7 100 c-10 140 -28 689 -23 693 4
5 83 -6 723 -99 199 -29 365 -49 369 -45 6 6 -9 525 -24 814 -5 105 -4 122 9
122 8 0 136 -25 284 -56z m3307 -803 c190 -92 263 -327 143 -459 -92 -102
-280 -86 -400 34 -146 145 -132 360 29 436 54 25 164 20 228 -11z m-898 -515
c68 -8 828 -106 1284 -166 206 -27 377 -53 382 -57 4 -4 10 -131 14 -282 l7
-273 -38 6 c-22 3 -111 12 -199 21 -88 8 -324 30 -525 50 -201 19 -486 46
-635 60 -148 14 -289 28 -311 31 l-42 6 -6 91 c-3 51 -8 190 -12 311 -6 210
-6 218 12 213 11 -3 42 -8 69 -11z m965 -824 c61 -32 116 -87 148 -147 22 -42
27 -63 27 -131 0 -72 -3 -86 -30 -130 -62 -100 -191 -140 -317 -98 -71 23
-167 118 -191 188 -49 144 11 284 140 332 57 21 168 14 223 -14z"/>
<path d="M1318 3923 c-5 -9 1 -161 26 -683 9 -179 23 -473 31 -655 8 -181 22
-474 30 -650 9 -176 20 -417 25 -536 5 -118 16 -250 25 -291 51 -246 164 -422
323 -500 97 -48 72 -50 2087 197 796 98 1264 155 1515 186 135 16 315 38 400
49 85 11 286 36 445 55 160 19 342 42 405 50 63 8 318 40 565 70 248 31 466
61 485 67 156 49 291 195 336 363 18 67 17 177 -6 686 -10 239 -29 650 -41
914 -12 264 -22 481 -23 482 -3 4 -423 17 -1291 43 -379 11 -901 27 -1159 35
-339 11 -471 12 -476 4 -5 -7 -29 -7 -86 0 -67 10 -465 25 -1154 46 -102 3
-403 12 -670 20 -267 8 -712 21 -990 30 -278 8 -571 17 -651 21 -81 3 -149 2
-151 -3z m4952 -733 c162 -154 297 -280 300 -280 3 0 118 121 255 269 138 149
255 269 260 268 6 -1 102 -95 214 -209 l203 -207 -241 -270 c-133 -149 -241
-274 -241 -280 0 -5 26 -33 58 -61 95 -88 457 -435 460 -442 3 -6 -232 -292
-344 -420 l-32 -36 -276 249 c-151 137 -277 249 -280 249 -2 0 -124 -135 -271
-300 -146 -165 -270 -300 -274 -300 -12 0 -486 400 -486 410 0 4 124 141 275
303 151 163 275 302 275 310 0 8 -136 137 -302 287 -167 150 -303 278 -303
283 0 11 440 457 450 457 3 0 138 -126 300 -280z m-2070 -357 c0 -5 11 -147
24 -318 35 -450 39 -495 35 -496 -27 -7 -1866 -145 -1870 -140 -4 3 -14 211
-23 461 -9 250 -18 463 -20 472 -4 17 19 18 327 21 821 6 1527 6 1527 0z"/>
</g>
</svg>
